# xmcd
# 
# Track frame offsets:
#     182
#     11945
#     25170
#     37765
#     48770
#     58495
#     71987
#     84925
#     98440
#     115442
#     126037
#     140565
#     152657
#     162907
#     173427
#     189647
# 
# Disc length: 2652
# 
# Revision: 6
# Processed by: cddbd v1.5.2PL0 Copyright (c) Steve Scherf et al.
# Submitted via: BonkEnc v1.0rc1
# 
DISCID=cf0a5a10
DTITLE=Various Artist - Six Days on the Road
DYEAR=0
DGENRE=Country
TTITLE0=Dave Dudley - Six Days on the Road
TTITLE1=Audrey Landers - Yellow Rose of Texas
TTITLE2=Bpbby Bare - Detroit City
TTITLE3=Freddy Quinn - Some broken Hearts never mend
TTITLE4=Eddie Jones - Deep in the Heart of Texas
TTITLE5=Kenny Rogers - Baby, don't take your love to town
TTITLE6=Glenn Campbell - Sunflower
TTITLE7=Alabama - Love in the first Degree
TTITLE8=The Bellamy Brothers - Crossfire
TTITLE9=Johnny Cash - Daddy sang Bass
TTITLE10=Don WIlliams - Tulsa Time
TTITLE11=Don Gibson - I can't stop loving you
TTITLE12=Susan Raye - Put a litte Love in your Heart
TTITLE13=Sue Thompson - Norman
TTITLE14=Billie Joe Spears - Blanket on the Ground
TTITLE15=Miki and Griff - A little bitty tear
EXTD=
EXTT0=
EXTT1=
EXTT2=
EXTT3=
EXTT4=
EXTT5=
EXTT6=
EXTT7=
EXTT8=
EXTT9=
EXTT10=
EXTT11=
EXTT12=
EXTT13=
EXTT14=
EXTT15=
PLAYORDER=
